<svg xmlns="http://www.w3.org/2000/svg" xmlns:xlink="http://www.w3.org/1999/xlink" width="500" zoomAndPan="magnify" viewBox="0 0 375 374.999991" height="500" preserveAspectRatio="xMidYMid meet" version="1.0"><defs><clipPath id="3d7433220a"><path d="M 0 11 L 375 11 L 375 365.625 L 0 365.625 Z M 0 11 " clip-rule="nonzero"/></clipPath></defs><g clip-path="url(#3d7433220a)"><path fill="#ffde59" d="M 32.964844 287.003906 C 38.953125 288.144531 43.558594 291.3125 47.777344 295.199219 C 52.851562 299.875 57.5 305.042969 63.246094 308.953125 C 81.359375 321.320312 105.769531 319.539062 122.25 304.71875 C 127.027344 300.425781 131.503906 295.8125 136.753906 292.0625 C 149.476562 282.996094 166.28125 284.125 177.730469 294.808594 C 182.960938 299.679688 187.800781 305.007812 193.761719 309.027344 C 212.164062 321.429688 236.707031 319.476562 253.027344 304.375 C 257.648438 300.101562 262.109375 295.640625 267.265625 291.980469 C 279.910156 283.023438 296.570312 284.113281 307.949219 294.699219 C 311.054688 297.589844 314.152344 300.492188 317.242188 303.410156 C 325.035156 310.777344 332.058594 314.402344 342.816406 316.503906 C 342.816406 326.179688 342.816406 335.636719 342.816406 345.230469 L 32.964844 345.230469 C 32.964844 325.863281 32.964844 306.542969 32.964844 287.003906 Z M 88.296875 189.300781 C 93.667969 184.777344 98.507812 179.636719 104.269531 175.554688 C 116.929688 166.59375 133.554688 167.703125 144.988281 178.234375 C 150.414062 183.230469 155.371094 188.777344 161.59375 192.878906 C 179.738281 204.820312 203.0625 202.976562 220.851562 188.253906 C 226.078125 183.925781 231.144531 179.382812 236.589844 175.355469 C 247.625 167.199219 263.773438 167.570312 274.429688 176.222656 C 279.023438 179.953125 283.160156 184.25 287.539062 188.261719 C 288.324219 188.984375 288.632812 189.796875 288.632812 190.820312 C 288.625 204.152344 288.625 217.480469 288.625 231.101562 C 221.257812 231.101562 154.371094 231.101562 87.085938 231.101562 C 87.085938 224.21875 87.085938 217.480469 87.085938 210.734375 C 87.085938 204.792969 87.085938 198.847656 87.074219 192.90625 C 87.074219 191.550781 87.101562 190.304688 88.296875 189.300781 Z M 358.699219 345.230469 C 358.734375 344.8125 358.773438 344.40625 358.773438 344.007812 C 358.746094 322.429688 358.808594 300.835938 358.734375 279.246094 C 358.652344 255.5 343.175781 236.792969 319.886719 232.25 C 314.875 231.265625 309.753906 231.535156 304.679688 231.429688 C 303.929688 230.128906 304.292969 228.773438 304.292969 227.480469 C 304.265625 205.894531 304.28125 184.304688 304.265625 162.71875 C 304.246094 138.835938 288.570312 119.949219 265.117188 115.722656 C 261.804688 115.117188 258.355469 115.082031 254.976562 115.070312 C 236.664062 115.007812 218.351562 115.046875 200.046875 115.046875 C 198.878906 115.046875 197.699219 115.046875 196.40625 115.046875 L 196.40625 83.890625 C 206.574219 73.738281 216.722656 63.578125 226.785156 53.316406 C 231.578125 48.421875 234.558594 42.558594 234.632812 35.496094 C 234.832031 24.71875 227.714844 15.390625 216.988281 12.355469 C 206.449219 9.375 195.414062 13.960938 189.796875 23.664062 C 187.257812 28.042969 186.609375 28.042969 184.089844 23.789062 C 179.492188 16.039062 172.757812 11.804688 163.679688 11.542969 C 153.773438 11.253906 145.230469 16.5625 141.339844 25.714844 C 137.511719 34.738281 137.78125 43.632812 144.789062 50.96875 C 155.652344 62.347656 166.851562 73.433594 178.003906 84.535156 L 178.003906 115.070312 C 177.261719 115.097656 176.546875 115.019531 175.84375 115.027344 C 155.128906 115.253906 134.394531 114.476562 113.6875 115.425781 C 93.894531 116.320312 75.09375 133.761719 72.140625 153.433594 C 71.632812 156.8125 71.4375 160.164062 71.4375 163.558594 C 71.445312 184.777344 71.445312 205.984375 71.445312 227.203125 C 71.445312 228.519531 71.445312 229.839844 71.445312 231.347656 C 64.96875 231.636719 58.667969 231.292969 52.542969 232.882812 C 31.3125 238.394531 17.089844 256.703125 16.984375 278.929688 C 16.882812 300.507812 16.964844 322.078125 16.964844 343.65625 C 16.964844 344.171875 16.964844 344.695312 16.964844 345.230469 L -9.050781 345.230469 L -9.050781 365.398438 L 383.949219 365.398438 L 383.949219 345.230469 L 358.699219 345.230469 " fill-opacity="1" fill-rule="nonzero"/></g></svg>